# xmcd
#
# Track frame offsets:
#	150
#	17528
#	30257
#	43806
#	60865
#	78768
#	92899
#	106528
#	123154
#	134707
#	145420
#	162275
#	178797
#	190125
#
# Disc length: 2738 seconds
#
# Revision: 0
# Processed by: cddbd v1.5.1PL0 Copyright (c) Steve Scherf et al.
# Submitted via: audiograbber 1.80
#
DISCID=ab0ab00e
DTITLE=Luis and Leonardo - A Turma Da Manguaça
DYEAR=1900
DGENRE=
TTITLE0=Além Da Pele
TTITLE1=Homem Triste
TTITLE2=Mil Vezes
TTITLE3=A Turma Da Manguaça
TTITLE4=A Canção Do Vaqueiro
TTITLE5=Morena Cheirosa
TTITLE6=De Goiás A Minas
TTITLE7=DifÍcil Caminhada
TTITLE8=Estrela Reluzente
TTITLE9=Coração Peregrino
TTITLE10=Preto Velho Simão
TTITLE11=Alma Santa
TTITLE12=Zero A Zero
TTITLE13=Cajú
EXTD=
EXTT0=
EXTT1=
EXTT2=
EXTT3=
EXTT4=
EXTT5=
EXTT6=
EXTT7=
EXTT8=
EXTT9=
EXTT10=
EXTT11=
EXTT12=
EXTT13=
PLAYORDER=
